# xmcd CD database file
#
# Track frame offsets:
#	150
#	11080
#	46269
#	59884
#	86546
#	98619
#	135872
#	165162
#	199006
#
# Disc length: 2943 seconds
#
# Revision: 0
# Processed by: cddbd v1.5.2PL0 Copyright (c) Steve Scherf et al.
# Submitted via: CDex 1.51
#
DISCID=670b7d09
DTITLE=Mark Lockheart - Moving Air
DYEAR=1900
DGENRE=Jazz
TTITLE0=tell me why
TTITLE1=man in the moon
TTITLE2=when the fire burns low
TTITLE3=strange remark
TTITLE4=one and only
TTITLE5=brave new world
TTITLE6=ship to shore
TTITLE7=dreamland
TTITLE8=light years
EXTD=
EXTT0=
EXTT1=
EXTT2=
EXTT3=
EXTT4=
EXTT5=
EXTT6=
EXTT7=
EXTT8=
PLAYORDER=
